<?xml version="1.0" encoding="utf-8"?>
<!-- Generator: Adobe Illustrator 23.0.2, SVG Export Plug-In . SVG Version: 6.00 Build 0)  -->
<svg version="1.1" id="Layer_1" xmlns="http://www.w3.org/2000/svg" xmlns:xlink="http://www.w3.org/1999/xlink" x="0px" y="0px"
	 viewBox="0 0 159.4 29.8" style="enable-background:new 0 0 159.4 29.8;" xml:space="preserve">
<style type="text/css">
	.st0{fill:#029660;}
	.st1{fill:#1E1E1C;}
</style>
<polygon class="st0" points="44.9,4 53.3,4 43.3,13 "/>
<path class="st1" d="M31.2,7h-6.8c-2.5,0-5,1-7.1,2.7l0,0L0,25.6h6l14.2-13c1.1-0.9,2.4-1.4,3.8-1.4h1.8l-1,5.8h-3.6
	c-3.3,0-5.5,2.1-5.5,2.1l-2.4,2.1H24l-0.8,4.4h4.7L31.2,7z"/>
<path class="st1" d="M148.6,21.4h-4.3c-2.8,0-4.7-2.3-4.2-5.1s3.2-5.1,6-5.1h4.3c2.8,0,4.7,2.3,4.2,5.1S151.4,21.4,148.6,21.4
	 M159.3,16.3c0.9-5.1-2.6-9.3-7.7-9.3h0.1h-5.5l0,0c-5,0.1-9.8,4.3-10.7,9.3c-0.9,5.1,2.4,9.2,7.4,9.3l0,0h6.1
	C146.8,25.6,157.6,26.1,159.3,16.3"/>
<path class="st1" d="M85.7,7H64.3l-0.7,4.2h6.9L68,25.6h4.7l2.5-14.4h5.9C81.1,11.2,82.8,8.6,85.7,7"/>
<path class="st1" d="M136.2,7h-6.1l-7.9,7.2h-4.5L119,7h-4.7L111,25.7h4.7l1.3-7.2h5.3l3.7,4.9c0,0,1.5,2.3,5,2.3h2.3l-7-9.5
	L136.2,7z"/>
<path class="st1" d="M53.7,7L39.4,19.9l2.3-13H37l-3.3,18.7h1.8c3.7,0,6.7-2.7,6.7-2.7l11.6-10.5l-2.3,13.2h4.7l3.3-18.7h-5.8
	C53.7,6.9,53.7,7,53.7,7z"/>
<path class="st1" d="M92.8,21.4L92.8,21.4L92.8,21.4c-2.8,0-4.7-2.3-4.2-5.1s3.2-5.1,6-5.1h8.3c0.8,0,1.4,0.7,1.2,1.5
	c-0.1,0.8-0.9,1.5-1.8,1.5h-5.8h-5.1c-0.6,0.6-1,1.3-1.1,2.1c-0.1,0.8,0,1.5,0.4,2.1h5.1h6.1c3.1,0,6.2-2.6,6.7-5.7
	c0.6-3.1-1.6-5.7-4.7-5.7h-9.1c-5.1,0-10,4.2-11,9.3c-0.9,5.1,2.5,9.3,7.7,9.3l0,0l0,0H106l0.7-4.2C106.7,21.4,92.8,21.4,92.8,21.4z
	"/>
</svg>
